<svg width="280" height="auto" viewBox="0 0 914 220" fill="none" xmlns="http://www.w3.org/2000/svg">
<g id="logo-overfy">
<path id="Overfy" d="M136.61 94.5102C136.61 107.05 133.823 118.577 128.25 129.09C122.677 139.477 114.95 147.71 105.07 153.79C95.3167 159.87 84.2967 162.91 72.01 162.91C59.7233 162.91 48.64 159.87 38.76 153.79C29.0067 147.71 21.3433 139.477 15.77 129.09C10.3233 118.577 7.6 107.05 7.6 94.5102C7.6 81.9702 10.3233 70.5069 15.77 60.1203C21.3433 49.6069 29.0067 41.3102 38.76 35.2302C48.64 29.1502 59.7233 26.1102 72.01 26.1102C84.2967 26.1102 95.3167 29.1502 105.07 35.2302C114.95 41.3102 122.677 49.6069 128.25 60.1203C133.823 70.5069 136.61 81.9702 136.61 94.5102ZM111.91 94.5102C111.91 86.0236 110.2 78.3602 106.78 71.5203C103.36 64.5536 98.61 59.0436 92.53 54.9902C86.45 50.9369 79.61 48.9102 72.01 48.9102C64.2833 48.9102 57.38 50.9369 51.3 54.9902C45.3467 58.9169 40.66 64.3636 37.24 71.3302C33.9467 78.2969 32.3 86.0236 32.3 94.5102C32.3 102.997 33.9467 110.724 37.24 117.69C40.66 124.657 45.3467 130.167 51.3 134.22C57.38 138.147 64.2833 140.11 72.01 140.11C79.61 140.11 86.45 138.084 92.53 134.03C98.61 129.977 103.36 124.53 106.78 117.69C110.2 110.724 111.91 102.997 111.91 94.5102ZM232.71 59.5502C235.75 59.5502 238.283 60.5636 240.31 62.5903C242.337 64.4903 243.35 66.8969 243.35 69.8103C243.35 71.3302 242.843 73.2302 241.83 75.5103L206.3 153.79C205.413 155.944 204.083 157.654 202.31 158.92C200.663 160.187 198.763 160.884 196.61 161.01L194.9 161.2C192.747 161.2 190.72 160.567 188.82 159.3C187.047 157.907 185.653 156.07 184.64 153.79L149.3 75.5103C148.413 73.4836 147.97 71.4569 147.97 69.4302C147.97 66.8969 149.047 64.6169 151.2 62.5903C153.353 60.4369 156.013 59.3602 159.18 59.3602C161.587 59.3602 163.803 59.9936 165.83 61.2602C167.857 62.5269 169.377 64.3002 170.39 66.5803L196.61 126.62L222.64 66.7702C223.653 64.3636 225.047 62.5269 226.82 61.2602C228.593 59.9936 230.557 59.4236 232.71 59.5502ZM352.509 107.81C352.383 110.85 351.179 113.32 348.899 115.22C346.619 117.12 343.959 118.07 340.919 118.07H278.219C279.739 125.544 283.223 131.434 288.669 135.74C294.116 139.92 300.259 142.01 307.099 142.01C312.293 142.01 316.346 141.567 319.259 140.68C322.173 139.667 324.453 138.654 326.099 137.64C327.873 136.5 329.076 135.74 329.709 135.36C331.989 134.22 334.143 133.65 336.169 133.65C338.829 133.65 341.109 134.6 343.009 136.5C344.909 138.4 345.859 140.617 345.859 143.15C345.859 146.57 344.086 149.674 340.539 152.46C336.993 155.374 332.243 157.844 326.289 159.87C320.336 161.897 314.319 162.91 308.239 162.91C297.599 162.91 288.289 160.694 280.309 156.26C272.456 151.827 266.376 145.747 262.069 138.02C257.763 130.167 255.609 121.364 255.609 111.61C255.609 100.717 257.889 91.1536 262.449 82.9203C267.009 74.6869 273.026 68.4169 280.499 64.1102C287.973 59.6769 295.953 57.4603 304.439 57.4603C312.799 57.4603 320.653 59.7403 327.999 64.3003C335.473 68.8603 341.426 75.0036 345.859 82.7302C350.293 90.4569 352.509 98.8169 352.509 107.81ZM304.439 78.3602C289.746 78.3602 281.069 85.2636 278.409 99.0703H328.189V97.7403C327.683 92.4202 325.086 87.8602 320.399 84.0602C315.713 80.2602 310.393 78.3602 304.439 78.3602ZM422.444 57.4603C426.244 57.4603 429.411 58.5369 431.944 60.6903C434.604 62.8436 435.934 65.3769 435.934 68.2902C435.934 72.2169 434.921 75.1936 432.894 77.2203C430.868 79.1202 428.461 80.0702 425.674 80.0702C423.774 80.0702 421.621 79.6269 419.214 78.7402C418.834 78.6136 417.948 78.3603 416.554 77.9803C415.288 77.6003 413.894 77.4102 412.374 77.4102C409.081 77.4102 405.914 78.4236 402.874 80.4502C399.834 82.4769 397.301 85.5802 395.274 89.7602C393.374 93.8136 392.424 98.6903 392.424 104.39V149.42C392.424 152.714 391.348 155.5 389.194 157.78C387.041 159.934 384.318 161.01 381.024 161.01C377.731 161.01 375.008 159.934 372.854 157.78C370.701 155.5 369.624 152.714 369.624 149.42V70.9502C369.624 67.6569 370.701 64.9336 372.854 62.7803C375.008 60.5002 377.731 59.3602 381.024 59.3602C384.318 59.3602 387.041 60.5002 389.194 62.7803C391.348 64.9336 392.424 67.6569 392.424 70.9502V73.4202C395.338 68.2269 399.518 64.3002 404.964 61.6403C410.411 58.8536 416.238 57.4603 422.444 57.4603ZM498.937 40.5503C494.63 40.5503 491.59 41.8169 489.817 44.3502C488.044 46.7569 487.157 49.4169 487.157 52.3302V61.2602H504.447C507.487 61.2602 510.02 62.2736 512.047 64.3003C514.074 66.2003 515.087 68.6702 515.087 71.7102C515.087 74.7503 514.074 77.2836 512.047 79.3103C510.02 81.2103 507.487 82.1602 504.447 82.1602H487.157V149.42C487.157 152.714 486.08 155.5 483.927 157.78C481.774 159.934 479.05 161.01 475.757 161.01C472.464 161.01 469.74 159.934 467.587 157.78C465.434 155.5 464.357 152.714 464.357 149.42V82.1602H454.097C451.057 82.1602 448.524 81.2103 446.497 79.3103C444.47 77.2836 443.457 74.7503 443.457 71.7102C443.457 68.6702 444.47 66.2003 446.497 64.3003C448.524 62.2736 451.057 61.2602 454.097 61.2602H464.357V52.5202C464.357 43.0202 467.587 35.2936 474.047 29.3403C480.634 23.3869 490.07 20.4103 502.357 20.4103C507.044 20.4103 511.097 21.3603 514.517 23.2602C518.064 25.1602 519.837 28.0736 519.837 32.0003C519.837 35.0402 518.95 37.5102 517.177 39.4102C515.404 41.3103 513.25 42.2603 510.717 42.2603C510.084 42.2603 509.387 42.1969 508.627 42.0702C507.994 41.9436 507.297 41.8169 506.537 41.6902C503.497 40.9303 500.964 40.5503 498.937 40.5503ZM602.866 59.3602C606.159 59.3602 608.882 60.5002 611.036 62.7803C613.189 64.9336 614.266 67.6569 614.266 70.9502V151.7C614.266 168.167 609.832 180.137 600.966 187.61C592.099 195.21 580.256 199.01 565.436 199.01C561.129 199.01 556.696 198.63 552.136 197.87C547.702 197.237 544.092 196.35 541.306 195.21C535.099 192.55 531.996 188.877 531.996 184.19C531.996 183.304 532.186 182.29 532.566 181.15C533.326 178.364 534.592 176.21 536.366 174.69C538.266 173.297 540.292 172.6 542.446 172.6C543.712 172.6 544.916 172.79 546.056 173.17C546.942 173.55 548.462 174.184 550.616 175.07C552.896 175.957 555.239 176.654 557.646 177.16C560.179 177.794 562.776 178.11 565.436 178.11C574.429 178.11 581.016 176.147 585.196 172.22C589.502 168.42 591.656 161.834 591.656 152.46V150.56C585.069 158.794 574.809 162.91 560.876 162.91C554.289 162.91 548.462 161.39 543.396 158.35C538.329 155.184 534.402 150.877 531.616 145.43C528.829 139.857 527.436 133.524 527.436 126.43V70.9502C527.436 67.6569 528.512 64.9336 530.666 62.7803C532.819 60.5002 535.542 59.3602 538.836 59.3602C542.129 59.3602 544.852 60.5002 547.006 62.7803C549.159 64.9336 550.236 67.6569 550.236 70.9502V119.59C550.236 127.57 551.946 133.334 555.366 136.88C558.912 140.3 564.042 142.01 570.756 142.01C577.342 142.01 582.409 140.11 585.956 136.31C589.629 132.384 591.466 126.81 591.466 119.59V70.9502C591.466 67.6569 592.542 64.9336 594.696 62.7803C596.849 60.5002 599.572 59.3602 602.866 59.3602Z" fill="#0E2844"/>
<circle id="Ellipse 13" cx="815.208" cy="110.257" r="58.5" transform="rotate(-0.154946 815.208 110.257)" stroke="#0E2844" stroke-width="5"/>
<path id="Vector 10" d="M871.682 100.604C866.556 103.108 863.194 105.127 861.703 108.631C860.213 112.136 860.86 116.881 858.738 121.64C852.882 134.776 841.917 136.704 834.311 148.206C832.528 150.902 831.552 152.564 830.831 155.715C830.047 159.141 830.855 164.715 830.855 164.715" stroke="#0E2844" stroke-width="5" stroke-linecap="round" stroke-linejoin="round"/>
<path id="Vector 11" d="M822.051 52.2384C822.051 52.2384 826.41 57.8216 827.578 62.2235C830.222 72.1888 820.634 82.7424 816.643 86.2532C812.653 89.764 801.325 98.4596 796.695 105.307C793.949 109.367 794.42 112.45 796.723 115.807C801.179 122.304 810.762 121.229 813.753 126.761C817.335 133.389 806.316 133.796 790.764 130.823C775.211 127.85 777.347 116.335 763.711 111.396C761.476 110.687 760.361 110.456 758.708 110.41" stroke="#0E2844" stroke-width="5" stroke-linecap="round" stroke-linejoin="round"/>
<g class='plane' id="rotate">
<path id="Border" d="M891.797 109.576C891.912 152.102 857.531 186.669 815.006 186.784C772.48 186.899 737.913 152.519 737.798 109.993C737.683 67.4671 772.063 32.8999 814.589 32.7849C857.115 32.6699 891.682 67.0506 891.797 109.576Z" stroke="#0E2844" stroke-width="5" stroke-linecap="round" stroke-linejoin="round" stroke-dasharray="8 12"/>
<path id="Plane" d="M872.967 50.6893L901.446 43.1123L907.461 48.596L883.498 62.1609L896.034 75.6271L905.529 73.6014L910.04 77.5892C910.04 77.5892 901.982 81.2281 898.06 85.1216C894.255 88.8992 890.094 97.6432 890.094 97.6432L886.08 92.654L888.055 83.1487L874.522 71.1852L861.084 94.2216L855.568 88.2365L862.991 59.7163C862.991 59.7163 857.977 54.7291 852.464 49.7443C846.951 44.7595 854.923 34.2378 861.94 40.7186C868.957 47.1994 872.355 51.5806 872.967 50.6893Z" fill="white" stroke="#0E2844" stroke-width="5" stroke-linejoin="round"/>
</g>
</g>
</svg>
